<svg id="Line" height="512" viewBox="0 0 64 64" width="512" xmlns="http://www.w3.org/2000/svg"><g><path d="m47.052 15.608h-20.75c-.552 0-1 .448-1 1s.448 1 1 1h20.75c.553 0 1-.448 1-1s-.448-1-1-1z"/><path d="m47.052 26.323h-20.75c-.552 0-1 .448-1 1s.448 1 1 1h20.75c.553 0 1-.448 1-1s-.448-1-1-1z"/><path d="m47.052 37.009h-20.75c-.552 0-1 .448-1 1s.448 1 1 1h20.75c.553 0 1-.448 1-1s-.448-1-1-1z"/><path d="m51.077 2.994h-28.771c-3.365 0-6.103 2.738-6.103 6.103v3.28h-3.28c-3.349 0-6.074 2.737-6.074 6.102v36.425c0 3.365 2.725 6.103 6.074 6.103h28.771c3.35 0 6.074-2.738 6.074-6.103v-3.28h3.309c3.35 0 6.074-2.737 6.074-6.102v-36.426c0-3.365-2.724-6.102-6.074-6.102zm-5.308 51.91c0 2.262-1.828 4.103-4.074 4.103h-28.772c-2.247 0-4.074-1.84-4.074-4.103v-36.425c0-2.262 1.828-4.102 4.074-4.102h3.28v31.145c0 3.365 2.738 6.102 6.103 6.102h23.463zm9.382-9.383c0 2.262-1.828 4.102-4.074 4.102h-28.771c-2.262 0-4.103-1.84-4.103-4.102v-36.425c0-2.262 1.84-4.103 4.103-4.103h28.771c2.246 0 4.074 1.84 4.074 4.103z"/></g></svg>